Patient4_TMGait_0pt6_02_left_16_GRF.mot
version=1
nRows=32
nColumns=19
inDegrees=no
endheader
time	F1x	F1y	F1z	M1x	M1y	M1z	F2x	F2y	F2z	M2x	M2y	M2z	EC1x	EC1y	EC1z	EC2x	EC2y	EC2z
19.64	2.4044	8.962	-7.5196	-2.4338	5.5766	21.1864	-35.9224	743.8134	-61.985	302.3639	83.124	805.2126	-0.0592	0.0182	-0.0073	-0.0462	0.0165	0.9585
19.6524	1.6084	6.8755	-4.9482	-1.9237	3.5768	15.1552	-35.6291	741.666	-60.4015	300.9897	80.7128	802.752	-0.0592	0.0182	-0.0073	-0.0462	0.0165	0.9585
19.6649	0.87326	5.163	-2.8236	-1.5071	1.9353	10.1405	-34.9991	740.3718	-58.7976	300.0156	78.1685	800.4533	-0.0592	0.0182	-0.0073	-0.0462	0.0165	0.9585
19.6773	0.26421	3.908	-1.2284	-1.2074	0.70625	6.405	-34.0524	740.3304	-57.3188	299.6345	75.6729	798.7183	-0.0592	0.0182	-0.0073	-0.0462	0.0165	0.9585
19.6897	-0.20313	3.0928	-0.14401	-1.0221	-0.1316	3.8977	-32.8258	741.6693	-56.0413	299.9049	73.3382	797.7526	-0.0592	0.0182	-0.0073	-0.0462	0.0165	0.9585
19.7021	-0.54847	2.6508	0.5204	-0.93199	-0.65768	2.4361	-31.385	744.2497	-55.0132	300.7577	71.2412	797.555	-0.0592	0.0182	-0.0073	-0.0462	0.0165	0.9585
19.7146	-0.77772	2.4541	0.86726	-0.90204	-0.94715	1.7099	-29.7602	747.7227	-54.224	302.0318	69.3811	797.901	-0.0592	0.0182	-0.0073	-0.0462	0.0165	0.9585
19.727	-0.95267	2.3881	1.0056	-0.89843	-1.0931	1.4455	-28.0028	751.625	-53.6579	303.5177	67.7475	798.4454	-0.0592	0.0182	-0.0073	-0.0462	0.0165	0.9585
19.7394	-1.0766	2.3039	1.0186	-0.87824	-1.1521	1.3273	-26.1458	755.469	-53.2579	305.002	66.2865	798.7831	-0.0592	0.0182	-0.0073	-0.0462	0.0165	0.9585
19.7519	-1.2	2.0715	0.97095	-0.79771	-1.1774	1.1364	-24.2046	758.8124	-53.0112	306.2919	64.9787	798.5207	-0.0592	0.0182	-0.0073	-0.0462	0.0165	0.9585
19.7643	-1.3107	1.5401	0.90404	-0.60709	-1.1892	0.60802	-22.1616	761.27	-52.874	307.2263	63.7646	797.2865	-0.0592	0.0182	-0.0073	-0.0462	0.0165	0.9585
19.7767	-1.4245	0.58414	0.8404	-0.26108	-1.2022	-0.41159	-19.9723	762.544	-52.8259	307.683	62.5967	794.7843	-0.0592	0.0182	-0.0073	-0.0462	0.0165	0.9585
19.7891	-1.4703	-0.91523	0.78016	0.27807	-1.1899	-2.0989	-17.5752	762.4242	-52.8076	307.5775	61.3867	790.7949	-0.0592	0.0182	-0.0073	-0.0462	0.0165	0.9585
19.8016	-1.4027	-2.9899	0.71328	1.0224	-1.1225	-4.4876	-14.9343	760.7557	-52.7905	306.8453	60.0856	785.1647	-0.0592	0.0182	-0.0073	-0.0462	0.0165	0.9585
19.814	-1.1042	-5.5661	0.61806	1.9431	-0.93368	-7.4999	-12.0347	757.4165	-52.731	305.4301	58.6411	777.7702	-0.0592	0.0182	-0.0073	-0.0462	0.0165	0.9585
19.8264	-0.45676	-8.3596	0.46412	2.9377	-0.54212	-10.7907	-8.8877	752.3476	-52.635	303.2942	57.0569	768.5629	-0.0592	0.0182	-0.0073	-0.0462	0.0165	0.9585
19.8389	0.67408	-10.8009	0.22102	3.8009	0.13832	-13.6891	-5.5046	745.6066	-52.5193	300.4468	55.346	757.6136	-0.0592	0.0182	-0.0073	-0.0462	0.0165	0.9585
19.8513	2.4209	-11.9374	-0.14399	4.1917	1.1902	-15.0623	-1.9049	737.4533	-52.4472	296.9749	53.5663	745.211	-0.0592	0.0182	-0.0073	-0.0462	0.0165	0.9585
19.8637	4.8614	-10.3451	-0.64572	3.6012	2.6561	-13.1975	1.9171	728.3102	-52.461	293.0347	51.7519	731.8072	-0.0592	0.0182	-0.0073	-0.0462	0.0165	0.9585
19.8761	7.981	-4.0978	-1.2711	1.3416	4.5079	-5.7897	5.9626	718.6234	-52.5985	288.8002	49.9376	717.8869	-0.0592	0.0182	-0.0073	-0.0462	0.0165	0.9585
19.8886	11.5357	9.186	-1.9676	-3.4313	6.5907	10.0368	10.2437	708.6893	-52.8409	284.3987	48.105	703.7828	-0.0592	0.0182	-0.0073	-0.0462	0.0165	0.9585
19.901	15.0092	32.0593	-2.6286	-11.6233	8.5779	37.3537	14.7316	698.4158	-53.1253	279.815	46.2119	689.4598	-0.0592	0.0182	-0.0073	-0.0462	0.0165	0.9585
19.9134	17.398	66.7793	-3.0558	-24.0245	9.8666	78.9036	19.3533	687.1348	-53.3007	274.8179	44.1558	674.3341	-0.0592	0.0182	-0.0073	-0.0462	0.0165	0.9585
19.9259	17.2011	114.4447	-2.9405	-41.008	9.543	136.0259	23.9829	673.5809	-53.1605	268.9472	41.8074	657.2641	-0.0592	0.0182	-0.0073	-0.0462	0.0165	0.9585
19.9383	12.7694	174.3086	-1.8566	-62.2766	6.5328	207.8818	28.4205	656.0195	-52.4516	261.5587	39.0262	636.6731	-0.0592	0.0182	-0.0073	-0.0462	0.0165	0.9585
19.9507	3.804	243.5549	0.6182	-86.7816	0.22944	291.0724	32.3917	632.5343	-50.9288	251.9281	35.7114	610.8142	-0.0592	0.0182	-0.0073	-0.0462	0.0165	0.9585
19.9631	-8.0142	316.6394	5.0067	-112.4826	-9.3695	378.784	35.5635	601.3707	-48.4213	239.3776	31.8489	578.1043	-0.0592	0.0182	-0.0073	-0.0462	0.0165	0.9585
19.9756	-20.096	385.5905	11.8474	-136.522	-21.8676	461.0713	37.5975	561.2477	-44.9105	223.4023	27.5697	537.3896	-0.0592	0.0182	-0.0073	-0.0462	0.0165	0.9585
19.988	-30.5275	445.2378	20.6212	-157.071	-35.9038	531.3759	38.1748	511.854	-40.5216	203.8515	23.1266	488.4156	-0.0592	0.0182	-0.0073	-0.0462	0.0165	0.9585
20.0004	-38.3129	494.9797	30.1905	-173.9783	-49.795	588.7978	37.0875	454.0889	-35.5566	181.0322	18.8797	432.0384	-0.0592	0.0182	-0.0073	-0.0462	0.0165	0.9585
20.0129	-43.2615	536.8362	39.4614	-188.0424	-62.1853	635.7949	34.3013	390.0128	-30.4169	155.7016	15.1922	370.1998	-0.0592	0.0182	-0.0073	-0.0462	0.0165	0.9585
20.0253	-45.4661	573.2386	47.5233	-200.2055	-72.0805	675.3138	29.9637	322.5967	-25.4116	128.9957	12.2677	305.6545	-0.0592	0.0182	-0.0073	-0.0462	0.0165	0.9585
